<svg xmlns="http://www.w3.org/2000/svg" xmlns:xlink="http://www.w3.org/1999/xlink" width="894" height="770.54" viewBox="0 0 894 770.54">
  <defs>
    <filter id="Path_10" x="119.399" y="286.798" width="733.839" height="483.742" filterUnits="userSpaceOnUse">
      <feOffset dy="5" input="SourceAlpha"/>
      <feGaussianBlur stdDeviation="10" result="blur"/>
      <feFlood flood-opacity="0.161"/>
      <feComposite operator="in" in2="blur"/>
      <feComposite in="SourceGraphic"/>
    </filter>
    <linearGradient id="linear-gradient" x1="0.53" y1="1" x2="0.895" y2="1" gradientUnits="objectBoundingBox">
      <stop offset="0" stop-color="#e6e6e6"/>
      <stop offset="1" stop-color="#bfbfbf"/>
    </linearGradient>
  </defs>
  <g id="Group_7" data-name="Group 7" transform="translate(-275 -26)">
    <g id="undraw_Tabs_re_a2bd" transform="translate(274.998 25.999)">
      <path id="Path_1" data-name="Path 1" d="M958.693,482.973,369.509,735.036a16.519,16.519,0,0,1-21.66-8.68l-155.427-363.3a12.1,12.1,0,0,1,6.359-15.869l597.1-255.452A12.311,12.311,0,0,1,812.028,98.2L967.373,461.313A16.519,16.519,0,0,1,958.693,482.973Z" transform="translate(-188.38 -82.23)" fill="#f2f2f2"/>
      <path id="Path_2" data-name="Path 2" d="M931.449,471.969l-549.1,234.916c-8.049,3.444-17.221.113-20.446-7.425L226.551,383.092c-2.391-5.59.515-12.214,6.48-14.766L789.517,130.252c6.064-2.594,12.974-.082,15.405,5.6L940.2,452.055C943.424,459.592,939.5,468.526,931.449,471.969Z" transform="translate(-188.38 -82.23)" fill="#fff"/>
      <path id="Path_3" data-name="Path 3" d="M812.544,99.991,193.017,365.034l-3.3-7.723a16.574,16.574,0,0,1,8.716-21.729L787.5,83.565a16.574,16.574,0,0,1,21.735,8.7Z" transform="translate(-188.38 -82.23)" fill="#c9c9c9"/>
      <circle id="Ellipse_1" data-name="Ellipse 1" cx="4.283" cy="4.283" r="4.283" transform="translate(23.126 255.237)" fill="#fff"/>
      <circle id="Ellipse_2" data-name="Ellipse 2" cx="4.283" cy="4.283" r="4.283" transform="translate(38.075 248.842)" fill="#fff"/>
      <circle id="Ellipse_3" data-name="Ellipse 3" cx="4.283" cy="4.283" r="4.283" transform="translate(53.023 242.447)" fill="#fff"/>
      <path id="Path_4" data-name="Path 4" d="M492.268,446.007l-73.229,31.329a16.519,16.519,0,0,1-21.66-8.68l-40.423-94.488a16.519,16.519,0,0,1,8.68-21.66l73.229-31.329a16.519,16.519,0,0,1,21.66,8.68l40.424,94.488a16.519,16.519,0,0,1-8.68,21.66Z" transform="translate(-188.38 -82.23)" fill="#f2f2f2"/>
      <path id="Path_5" data-name="Path 5" d="M616.177,393l-73.229,31.329a16.519,16.519,0,0,1-21.66-8.68l-40.423-94.488a16.519,16.519,0,0,1,8.68-21.66l73.229-31.329a16.519,16.519,0,0,1,21.66,8.68l40.424,94.488A16.519,16.519,0,0,1,616.177,393Z" transform="translate(-188.38 -82.23)" fill="#f2f2f2"/>
      <path id="Path_6" data-name="Path 6" d="M740.085,339.987l-73.229,31.329a16.519,16.519,0,0,1-21.66-8.68l-40.423-94.488a16.519,16.519,0,0,1,8.68-21.66l73.229-31.329a16.519,16.519,0,0,1,21.66,8.68l40.424,94.488A16.519,16.519,0,0,1,740.085,339.987Z" transform="translate(-188.38 -82.23)" fill="#f2f2f2"/>
      <path id="Path_7" data-name="Path 7" d="M554.808,592.191,481.579,623.52a16.519,16.519,0,0,1-21.66-8.68L419.5,520.352a16.519,16.519,0,0,1,8.68-21.66L501.4,467.363a16.519,16.519,0,0,1,21.66,8.68l40.424,94.488a16.519,16.519,0,0,1-8.68,21.66Z" transform="translate(-188.38 -82.23)" fill="#f2f2f2"/>
      <path id="Path_8" data-name="Path 8" d="M678.717,539.181l-73.229,31.329a16.519,16.519,0,0,1-21.66-8.68L543.4,467.342a16.519,16.519,0,0,1,8.68-21.66l73.229-31.329a16.519,16.519,0,0,1,21.66,8.68L687.4,517.521a16.519,16.519,0,0,1-8.68,21.66Z" transform="translate(-188.38 -82.23)" fill="#f2f2f2"/>
      <path id="Path_9" data-name="Path 9" d="M802.625,486.171,729.4,517.5a16.519,16.519,0,0,1-21.66-8.68l-40.423-94.488a16.519,16.519,0,0,1,8.68-21.66l73.229-31.329a16.519,16.519,0,0,1,21.66,8.68l40.423,94.488a16.519,16.519,0,0,1-8.68,21.66Z" transform="translate(-188.38 -82.23)" fill="#f2f2f2"/>
      <g transform="matrix(1, 0, 0, 1, 0, 0)" filter="url(#Path_10)">
        <path id="Path_10-2" data-name="Path 10" d="M995.12,817.77H354.281a16.519,16.519,0,0,1-16.5-16.5V406.116a12.1,12.1,0,0,1,12.088-12.088H999.323a12.311,12.311,0,0,1,12.3,12.3V801.27A16.519,16.519,0,0,1,995.12,817.77Z" transform="translate(-188.38 -82.23)" fill="#efefef"/>
      </g>
      <path id="Path_11" data-name="Path 11" d="M974.4,796.938H377.155c-8.755,0-15.878-6.67-15.878-14.868V437.965c0-6.08,5.278-11.027,11.766-11.027H978.317c6.6,0,11.961,5.028,11.961,11.208V782.07C990.278,790.268,983.155,796.938,974.4,796.938Z" transform="translate(-187.38 -82.23)" fill="#fff"/>
      <path id="Path_12" data-name="Path 12" d="M1011.39,408.173H337.55v-8.4a16.574,16.574,0,0,1,16.56-16.55H994.83a16.574,16.574,0,0,1,16.56,16.55Z" transform="translate(-188.38 -82.23)" fill="#c9c9c9"/>
      <circle id="Ellipse_4" data-name="Ellipse 4" cx="4.283" cy="4.283" r="4.283" transform="translate(174.981 309.209)" fill="#fff"/>
      <circle id="Ellipse_5" data-name="Ellipse 5" cx="4.283" cy="4.283" r="4.283" transform="translate(191.24 309.209)" fill="#fff"/>
      <circle id="Ellipse_6" data-name="Ellipse 6" cx="4.283" cy="4.283" r="4.283" transform="translate(207.499 309.209)" fill="#fff"/>
      <rect id="Rectangle_3" data-name="Rectangle 3" width="119" height="31" rx="15.5" transform="translate(417.203 436.306)" fill="url(#linear-gradient)"/>
      <path id="Path_13" data-name="Path 13" d="M740.085,339.987l-73.229,31.329a16.519,16.519,0,0,1-21.66-8.68l-40.423-94.488a16.519,16.519,0,0,1,8.68-21.66l73.229-31.329a16.519,16.519,0,0,1,21.66,8.68l40.424,94.488A16.519,16.519,0,0,1,740.085,339.987Z" transform="matrix(0.921, 0.391, -0.391, 0.921, -214.004, -8.354)" fill="#f2f2f2"/>
      <rect id="Rectangle_16" data-name="Rectangle 16" width="183" height="31" rx="15.5" transform="translate(417.203 484.306)" fill="url(#linear-gradient)"/>
      <rect id="Rectangle_19" data-name="Rectangle 19" width="45" height="12" transform="translate(555.002 636.001)" fill="#f2f2f2"/>
      <rect id="Rectangle_21" data-name="Rectangle 21" width="45" height="12" transform="matrix(-0.017, 1, -1, -0.017, 398.894, 507.609)" fill="#f2f2f2"/>
    </g>
    <rect id="Rectangle_17" data-name="Rectangle 17" width="242" height="31" rx="15.5" transform="translate(693.2 557.305)" fill="url(#linear-gradient)"/>
    <circle id="Ellipse_14" data-name="Ellipse 14" cx="9" cy="9" r="9" transform="translate(1124 717)" fill="#f7cbae"/>
    <g id="Ellipse_15" data-name="Ellipse 15" transform="translate(1114 680)" fill="#c7c7c7" stroke="#d6d6d6" stroke-width="1">
      <circle cx="14" cy="14" r="14" stroke="none"/>
      <circle cx="14" cy="14" r="13.5" fill="none"/>
    </g>
    <circle id="Ellipse_16" data-name="Ellipse 16" cx="7" cy="7" r="7" transform="translate(1155 680)" fill="#e6e6e6"/>
    <circle id="Ellipse_17" data-name="Ellipse 17" cx="7.5" cy="7.5" r="7.5" transform="translate(1059 295)" fill="#f0899d"/>
    <ellipse id="Ellipse_18" data-name="Ellipse 18" cx="8.5" cy="10" rx="8.5" ry="10" transform="translate(389 726)" fill="#d5d3f0"/>
    <g id="Ellipse_19" data-name="Ellipse 19" transform="translate(275 361)" fill="#c7c7c7" stroke="#c7c7c7" stroke-width="1">
      <ellipse cx="9" cy="8.5" rx="9" ry="8.5" stroke="none"/>
      <ellipse cx="9" cy="8.5" rx="8.5" ry="8" fill="none"/>
    </g>
    <g id="Group_5" data-name="Group 5" transform="translate(214 -51)">
      <circle id="Ellipse_7" data-name="Ellipse 7" cx="31" cy="31" r="31" transform="translate(727 756)" fill="rgba(72,132,229,0.84)"/>
      <g id="Rectangle_13" data-name="Rectangle 13" transform="translate(761 765)" fill="none" stroke="#fff" stroke-width="1">
        <rect width="18" height="18" stroke="none"/>
        <rect x="0.5" y="0.5" width="17" height="17" fill="none"/>
      </g>
      <g id="Rectangle_9" data-name="Rectangle 9" transform="translate(736 765)" fill="none" stroke="#fff" stroke-width="1">
        <rect width="18" height="18" stroke="none"/>
        <rect x="0.5" y="0.5" width="17" height="17" fill="none"/>
      </g>
      <g id="Rectangle_14" data-name="Rectangle 14" transform="translate(761 790)" fill="none" stroke="#fff" stroke-width="1">
        <rect width="18" height="18" stroke="none"/>
        <rect x="0.5" y="0.5" width="17" height="17" fill="none"/>
      </g>
      <g id="Rectangle_15" data-name="Rectangle 15" transform="translate(736 790)" fill="none" stroke="#fff" stroke-width="1">
        <rect width="18" height="18" stroke="none"/>
        <rect x="0.5" y="0.5" width="17" height="17" fill="none"/>
      </g>
    </g>
    <rect id="Rectangle_20" data-name="Rectangle 20" width="324" height="31" rx="15.5" transform="translate(693.2 604.305)" fill="url(#linear-gradient)"/>
    <line id="Line_1" data-name="Line 1" x2="352" y2="1" transform="translate(682.5 651.5)" fill="none" stroke="#bfbfbf" stroke-width="1"/>
    <line id="Line_2" data-name="Line 2" y2="192" transform="translate(682.5 463.5)" fill="none" stroke="#bfbfbf" stroke-width="1"/>
  </g>
</svg>
